<?xml version="1.0" encoding="UTF-8"?>
<svg id="Layer_2" xmlns="http://www.w3.org/2000/svg" viewBox="0 0 1625.39 467.88">
  <defs>
    <style>
      .cls-1 {
        fill: #001b66;
      }

      .cls-2 {
        fill: #76c3fc;
      }

      .cls-3 {
        fill: #328ff8;
      }

      .cls-4 {
        fill: #0041ff;
      }
    </style>
  </defs>
  <g id="logos">
    <g>
      <g>
        <path class="cls-1" d="M713.36,385.55h-38.32c-5.15,0-9.72-3.28-11.37-8.16l-73.56-218.01c-2.62-7.78,3.16-15.84,11.37-15.84h39.81c5.24,0,9.88,3.4,11.45,8.4l43.88,139.58h.5l40.54-139.33c1.49-5.12,6.19-8.65,11.52-8.65h33.98c5.32,0,10.01,3.51,11.51,8.61l41.02,139.37h.99l43.4-139.54c1.56-5.02,6.2-8.44,11.46-8.44h39.25c8.22,0,14,8.08,11.36,15.86l-74.01,218.01c-1.65,4.87-6.22,8.14-11.36,8.14h-38.37c-5.31,0-10-3.5-11.51-8.59l-41.01-138.4h-.49l-40.53,138.36c-1.5,5.11-6.19,8.63-11.52,8.63h.01Z"/>
        <path class="cls-1" d="M1152.28,242.02v143.52h-59.89l-2.47-21.28-.99-.49c-16.33,14.85-39.59,26.23-67.31,26.23-51.47,0-80.67-32.66-80.67-76.71,0-48.5,30.69-77.7,97-77.7h50.98c-.5-29.69-13.86-41.08-47.02-41.08-17.08,0-35.49,4.01-51.67,11.47-5.85,2.7-12.78.24-15.68-5.51l-13.62-26.96c-3.17-6.28-.29-13.91,6.23-16.54,24.12-9.75,56.69-16.9,80.68-16.9,71.27,0,104.43,29.2,104.43,101.95h0ZM1088.93,305.37v-25.74h-48.5c-25.74,0-37.12,11.38-37.12,30.19s11.38,30.19,33.65,30.19c33.16,0,51.97-17.32,51.97-34.64Z"/>
        <path class="cls-1" d="M1241.06,377.93l-85.6-218.01c-3.09-7.87,2.71-16.39,11.17-16.39h43.13c5.12,0,9.68,3.25,11.35,8.09l53.14,154.24h.49l54.1-154.3c1.69-4.81,6.23-8.03,11.32-8.03h41.69c8.46,0,14.26,8.51,11.17,16.39l-85.6,218.01c-1.8,4.59-6.24,7.61-11.17,7.61h-44.02c-4.93,0-9.37-3.02-11.17-7.61h0Z"/>
        <path class="cls-1" d="M1612.92,285.58h-158.78c7.92,29.2,31.18,46.52,63.84,46.52,22.36,0,39.04-7.68,51.42-19.2,4.56-4.24,11.67-4.12,16.23.11l24.9,23.14c4.89,4.55,5.12,12.2.54,17.06-20.31,21.51-50.13,36.79-97.53,36.79-74.24,0-126.7-49.99-126.7-125.71s50.98-124.22,122.74-124.22,115.81,51.47,115.81,122.24c0,3.65-.21,8.03-.49,12.09-.43,6.29-5.66,11.17-11.97,11.17h-.01ZM1454.64,239.05h106.41c-6.43-25.74-23.76-42.56-51.97-42.56-26.23,0-47.02,14.85-54.44,42.56h0Z"/>
      </g>
      <g>
        <path class="cls-4" d="M115.23,146.02c-32.94-9.82-67.61,8.92-77.43,41.86-6.42,21.53-29.17,97.91-35.19,118.12-9.82,32.94,8.92,67.6,41.86,77.43,32.94,9.82,67.6-8.93,77.43-41.86,6.5-21.82,29.06-97.53,35.19-118.12,9.82-32.94-8.93-67.6-41.86-77.43h0Z"/>
        <path class="cls-3" d="M308.2,74.48c-32.94-9.82-67.61,8.92-77.43,41.87-2.5,8.38-11.81,39.59-22.6,75.78h0c-7.86,26.37-16.89,56.7-25.02,83.99-11.06,37.13-20.45,68.64-22.91,76.88-6.42,21.52-19.36,39.91-37.44,53.18-17.45,12.81-38.94,19.86-60.52,19.86-5.74,0-11.47-.5-17.13-1.47,16.58,16.94,37.57,30.03,61.9,37.27,74.7,22.24,153.21-18.85,177.94-92.11.47-1.27.91-2.58,1.3-3.9,6.5-21.82,57.64-193.34,63.77-213.92,9.82-32.94-8.92-67.6-41.86-77.43h0Z"/>
        <path class="cls-2" d="M501.21,2.61c-32.94-9.82-67.6,8.92-77.43,41.86-2.77,9.31-17.91,60.12-34.69,116.39-.22.82-.46,1.65-.7,2.47-3.05,10.24-17.25,57.89-31.55,105.85-14.42,48.38-28.94,97.08-32.21,108.06-.57,1.92-1.21,3.86-1.91,5.8-10.14,29.76-27.36,55.94-50.33,76.78,2.06.71,4.14,1.39,6.25,2.02,75.06,22.34,153.95-19.23,178.27-93.13.02-.04.04-.08.05-.12.45-1.22.86-2.46,1.24-3.73,6.5-21.82,78.76-264.24,84.9-284.82,9.82-32.94-8.93-67.61-41.87-77.43h-.02Z"/>
      </g>
    </g>
  </g>
</svg>